# xmcd
#
# Track frame offsets:
#	150
#	15405
#	32575
#	45545
#	59910
#	74042
#	96100
#	111522
#	129630
#	146152
#	161482
#	176737
#	193909
#	206877
#	221240
#	235375
#	257434
#	272855
#	290965
#	307485
#
# Disc length: 4304 seconds
#
# Revision: 1
# Processed by: cddbd v1.5.1PL2 Copyright (c) Steve Scherf et al.
# Submitted via: audiograbber 1.83.01
#
DISCID=5610ce14
DTITLE=Various Artist - Thc0602
DYEAR=1900
DGENRE=Country
TTITLE0=Brooks, Garth - Good Ride Cowboy (Vocals)
TTITLE1=Underwood, Carrie - Jesus, Take The Wheel (Vocals)
TTITLE2=Wilson, Gretchen - I Don't Feel Like Loving You Today (Vocals)
TTITLE3=Montgomery Gentry - She Don't Tell Me To (Vocals)
TTITLE4=Johnson, Jamey - Dollar, The (Vocals)
TTITLE5=Brooks and Dunn - Believe (Vocals)
TTITLE6=Tomlinson, Trent - Drunker Than Me (Vocals)
TTITLE7=Lynne, Rockie - Lipstick (Vocals)
TTITLE8=Evans, Sara - Cheatin' (Vocals)
TTITLE9=Chesney, Kenny - Living In Fast Forward (Vocals)
TTITLE10=Brooks, Garth - Good Ride Cowboy
TTITLE11=Underwood, Carrie - Jesus, Take The Wheel
TTITLE12=Wilson, Gretchen - I Don't Feel Like Loving You Today
TTITLE13=Montgomery Gentry - She Don't Tell Me To
TTITLE14=Johnson, Jamey - Dollar, The
TTITLE15=Brooks and Dunn - Believe
TTITLE16=Tomlinson, Trent - Drunker Than Me
TTITLE17=Lynne, Rockie - Lipstick
TTITLE18=Evans, Sara - Cheatin'
TTITLE19=Chesney, Kenny - Living In Fast Forward
EXTD=
EXTT0=
EXTT1=
EXTT2=
EXTT3=
EXTT4=
EXTT5=
EXTT6=
EXTT7=
EXTT8=
EXTT9=
EXTT10=
EXTT11=
EXTT12=
EXTT13=
EXTT14=
EXTT15=
EXTT16=
EXTT17=
EXTT18=
EXTT19=
PLAYORDER=
